<svg xmlns="http://www.w3.org/2000/svg" version="1.1" viewBox="0 0 3000 3000" width="3000" height="3000">
<!--ITEM 1--><g><defs><clipPath id="clip-path-id-viewbox-item-1"><rect x="0.0" y="0.0" width="2015.665" height="1731.145"/></clipPath></defs><g transform="translate(290.0 456.0) rotate(0.0 1211.0 1040.0) scale(1.2015885576224223 1.2015169151053204)"><g clip-path="url(#clip-path-id-viewbox-item-1)" transform="translate(-0.0 -0.0)"><g>
    <g>
      <path d="M2006.045,1116.225l-275.76-298.018V66a60,60,0,0,0-60-60H345.38a60,60,0,0,0-60,60V818.207L9.332,1116.536a12.741,12.741,0,0,0-3.153,10.7l-.135-.031,26.267,121.841a26,26,0,0,0,25.468,20.764H217.968l60.375,254.494,1474.994-.1,45.679-254.4h161.691A26,26,0,0,0,1986.3,1248.4l23.225-121.191-.038.006A12.724,12.724,0,0,0,2006.045,1116.225Z" style="         fill: #fff;       "/>
      <path d="M1960.706,1275.812h-850.43a6,6,0,1,1,0-12h850.43a19.982,19.982,0,0,0,19.687-16.473l23.239-121.261a6,6,0,1,1,11.785,2.258l-23.225,121.191A31.951,31.951,0,0,1,1960.706,1275.812Z" fill="#000000"/>
      <path d="M623.778,1275.812h-566a32.116,32.116,0,0,1-31.343-25.557L.179,1128.471a6,6,0,1,1,11.73-2.529l26.268,121.841a20.09,20.09,0,0,0,19.6,16.029h566a6,6,0,0,1,0,12Z" fill="#000000"/>
      <path d="M1219.864,1530.306a6,6,0,0,1,0-12l522.571-.1,50.7-249.59a6,6,0,1,1,11.76,2.388l-51.679,254.4a6,6,0,0,1-5.879,4.806Z" fill="#000000"/>
      <path d="M583.727,1530.306H272.343a6,6,0,0,1-5.867-4.746L212.1,1271.066a6,6,0,1,1,11.734-2.508L277.2,1518.306H583.727a6,6,0,0,1,0,12Z" fill="#000000"/>
      <path d="M1736.285,818.207h-12V66a54.061,54.061,0,0,0-54-54H345.38a54.061,54.061,0,0,0-54,54V818.207h-12V66a66.074,66.074,0,0,1,66-66H1670.285a66.074,66.074,0,0,1,66,66Z" fill="#000000"/>
      <path d="M623.778,1144.2H19.026a19,19,0,0,1-14.168-31.659c.022-.026.045-.052.069-.077L280.976,814.131a6,6,0,0,1,4.4-1.924l569.693-.5h0a6,6,0,0,1,0,12l-567.072.494L13.775,1120.569a7,7,0,0,0,5.251,11.629H623.778a6,6,0,0,1,0,12Z" fill="#000000"/>
      <path d="M1996.639,1144.2H1061.848a6,6,0,0,1,0-12h934.791a7,7,0,0,0,5.064-11.831L1727.661,824.205l-633.789-.494a6,6,0,0,1,0-12h.005l636.408.5a6.005,6.005,0,0,1,4.4,1.924l275.759,298.019a19,19,0,0,1-13.81,32.048Z" fill="#000000"/>
    </g>
    <g>
      <g>
        <path d="M1558.231,934.438l23.783-66.064a21.075,21.075,0,0,1,19.829-13.936h50.376a21.075,21.075,0,0,1,19.829,13.936l23.783,66.064" style="         fill: #fff;       "/>
        <path d="M1563.876,936.47l-11.291-4.064,23.783-66.064a27.145,27.145,0,0,1,25.475-17.9h50.376a27.147,27.147,0,0,1,25.475,17.9l23.782,66.064-11.291,4.064L1666.4,870.407a15.114,15.114,0,0,0-14.184-9.969h-50.376a15.113,15.113,0,0,0-14.184,9.969Z" fill="#000000"/>
      </g>
      <g>
        <path d="M1420.631,934.438l23.783-66.064a21.075,21.075,0,0,1,19.829-13.936h50.376a21.075,21.075,0,0,1,19.829,13.936l23.783,66.064" style="         fill: #fff;       "/>
        <path d="M1426.277,936.47l-11.291-4.064,23.783-66.064a27.142,27.142,0,0,1,25.474-17.9h50.376a27.147,27.147,0,0,1,25.475,17.9l23.782,66.064-11.291,4.064L1528.8,870.407a15.114,15.114,0,0,0-14.184-9.969h-50.376a15.111,15.111,0,0,0-14.183,9.969Z" fill="#000000"/>
      </g>
      <g>
        <path d="M319.834,934.438l23.783-66.064a21.075,21.075,0,0,1,19.829-13.936h50.376a21.075,21.075,0,0,1,19.829,13.936l23.783,66.064" style="         fill: #fff;       "/>
        <path d="M451.788,936.47l-23.783-66.063a15.112,15.112,0,0,0-14.184-9.969H363.446a15.112,15.112,0,0,0-14.183,9.969L325.48,936.47l-11.291-4.064,23.783-66.064a27.143,27.143,0,0,1,25.474-17.9h50.375a27.144,27.144,0,0,1,25.475,17.9l23.783,66.064Z" fill="#000000"/>
      </g>
      <g>
        <path d="M457.434,934.438l23.783-66.064a21.075,21.075,0,0,1,19.829-13.936h50.375a21.077,21.077,0,0,1,19.83,13.936l23.782,66.064" style="         fill: #fff;       "/>
        <path d="M589.388,936.47l-23.783-66.063a15.113,15.113,0,0,0-14.184-9.969H501.046a15.113,15.113,0,0,0-14.184,9.969L463.079,936.47l-11.291-4.064,23.783-66.064a27.145,27.145,0,0,1,25.475-17.9h50.375a27.145,27.145,0,0,1,25.475,17.9l23.783,66.064Z" fill="#000000"/>
      </g>
    </g>
    <g>
      <g>
        <path d="M251.034,985.874l23.783-66.063a21.075,21.075,0,0,1,19.829-13.937h50.376a21.075,21.075,0,0,1,19.829,13.937l23.783,66.063" style="         fill: #fff;       "/>
        <path d="M382.988,987.906l-23.783-66.064a15.11,15.11,0,0,0-14.183-9.968H294.647a15.112,15.112,0,0,0-14.184,9.968L256.68,987.906l-11.291-4.065,23.783-66.063a27.145,27.145,0,0,1,25.475-17.9h50.375a27.143,27.143,0,0,1,25.474,17.9l23.783,66.063Z" fill="#000000"/>
      </g>
      <g>
        <path d="M388.634,985.874l23.783-66.063a21.075,21.075,0,0,1,19.829-13.937h50.376a21.075,21.075,0,0,1,19.829,13.937l23.783,66.063" style="         fill: #fff;       "/>
        <path d="M520.588,987.906l-23.783-66.064a15.112,15.112,0,0,0-14.184-9.968H432.246a15.11,15.11,0,0,0-14.183,9.968l-23.784,66.064-11.291-4.065,23.784-66.063a27.142,27.142,0,0,1,25.474-17.9h50.375a27.145,27.145,0,0,1,25.475,17.9l23.783,66.063Z" fill="#000000"/>
      </g>
      <g>
        <path d="M526.234,985.874l23.782-66.063a21.077,21.077,0,0,1,19.83-13.937h50.375a21.075,21.075,0,0,1,19.829,13.937l23.783,66.063" style="         fill: #fff;       "/>
        <path d="M658.188,987.906,634.4,921.842a15.11,15.11,0,0,0-14.183-9.968H569.846a15.112,15.112,0,0,0-14.184,9.968l-23.783,66.064-11.291-4.065,23.783-66.063a27.145,27.145,0,0,1,25.475-17.9h50.375a27.142,27.142,0,0,1,25.474,17.9l23.784,66.063Z" fill="#000000"/>
      </g>
      <g>
        <path d="M1627.031,985.874l23.783-66.063a21.075,21.075,0,0,1,19.829-13.937h50.375a21.077,21.077,0,0,1,19.83,13.937l23.782,66.063" style="         fill: #fff;       "/>
        <path d="M1632.676,987.906l-11.291-4.065,23.783-66.063a27.145,27.145,0,0,1,25.475-17.9h50.376a27.144,27.144,0,0,1,25.474,17.9l23.783,66.063-11.291,4.065L1735.2,921.842a15.111,15.111,0,0,0-14.183-9.968h-50.376a15.112,15.112,0,0,0-14.184,9.968Z" fill="#000000"/>
      </g>
      <g>
        <path d="M1351.831,985.874l23.783-66.063a21.075,21.075,0,0,1,19.829-13.937h50.376a21.075,21.075,0,0,1,19.829,13.937l23.783,66.063" style="         fill: #fff;       "/>
        <path d="M1357.477,987.906l-11.291-4.065,23.783-66.063a27.144,27.144,0,0,1,25.475-17.9h50.376a27.145,27.145,0,0,1,25.474,17.9l23.782,66.063-11.291,4.065L1460,921.842a15.112,15.112,0,0,0-14.183-9.968h-50.376a15.111,15.111,0,0,0-14.184,9.968Z" fill="#000000"/>
      </g>
      <g>
        <path d="M1489.431,985.874l23.783-66.063a21.075,21.075,0,0,1,19.829-13.937h50.376a21.075,21.075,0,0,1,19.829,13.937l23.783,66.063" style="         fill: #fff;       "/>
        <path d="M1495.076,987.906l-11.291-4.065,23.784-66.063a27.142,27.142,0,0,1,25.474-17.9h50.376a27.147,27.147,0,0,1,25.475,17.9l23.782,66.063-11.291,4.065L1597.6,921.842a15.113,15.113,0,0,0-14.184-9.968h-50.376a15.11,15.11,0,0,0-14.183,9.968Z" fill="#000000"/>
      </g>
    </g>
    <g>
      <g>
        <path d="M319.834,1033.02l-23.783-66.064a21.075,21.075,0,0,0-19.829-13.936H225.846a21.076,21.076,0,0,0-19.829,13.936l-23.782,66.064" style="         fill: #fff;       "/>
        <path d="M314.189,1035.052,290.4,968.989a15.11,15.11,0,0,0-14.183-9.969H225.847a15.112,15.112,0,0,0-14.184,9.969l-23.783,66.063-11.291-4.064,23.783-66.064a27.143,27.143,0,0,1,25.475-17.9h50.375a27.141,27.141,0,0,1,25.474,17.9l23.784,66.064Z" fill="#000000"/>
      </g>
      <g>
        <path d="M319.834,1033.02l23.783-66.064a21.075,21.075,0,0,1,19.829-13.936h50.376a21.075,21.075,0,0,1,19.829,13.936l23.783,66.064" style="         fill: #fff;       "/>
        <path d="M451.788,1035.052l-23.783-66.063a15.111,15.111,0,0,0-14.184-9.969H363.446a15.111,15.111,0,0,0-14.183,9.969l-23.783,66.063-11.291-4.064,23.783-66.064a27.142,27.142,0,0,1,25.474-17.9h50.375a27.142,27.142,0,0,1,25.475,17.9l23.783,66.064Z" fill="#000000"/>
      </g>
      <g>
        <path d="M457.434,1033.02l23.783-66.064a21.075,21.075,0,0,1,19.829-13.936h50.375a21.077,21.077,0,0,1,19.83,13.936l23.782,66.064" style="         fill: #fff;       "/>
        <path d="M589.388,1035.052l-23.783-66.063a15.112,15.112,0,0,0-14.184-9.969H501.046a15.112,15.112,0,0,0-14.184,9.969l-23.783,66.063-11.291-4.064,23.783-66.064a27.143,27.143,0,0,1,25.475-17.9h50.375a27.143,27.143,0,0,1,25.475,17.9l23.783,66.064Z" fill="#000000"/>
      </g>
      <g>
        <path d="M595.033,1033.02l23.783-66.064a21.075,21.075,0,0,1,19.829-13.936h50.376a21.075,21.075,0,0,1,19.829,13.936l23.783,66.064" style="         fill: #fff;       "/>
        <path d="M600.679,1035.052l-11.291-4.064,23.783-66.064a27.143,27.143,0,0,1,25.475-17.9h50.375a27.144,27.144,0,0,1,25.475,17.9l23.782,66.064-11.291,4.064-23.782-66.063a15.112,15.112,0,0,0-14.184-9.969H638.646a15.112,15.112,0,0,0-14.184,9.969Z" fill="#000000"/>
      </g>
      <g>
        <path d="M1283.032,1033.02l23.782-66.064a21.077,21.077,0,0,1,19.83-13.936h50.375a21.075,21.075,0,0,1,19.829,13.936l23.783,66.064" style="         fill: #fff;       "/>
        <path d="M1288.677,1035.052l-11.291-4.064,23.783-66.064a27.143,27.143,0,0,1,25.475-17.9h50.376a27.142,27.142,0,0,1,25.474,17.9l23.783,66.064-11.291,4.064L1391.2,968.989a15.112,15.112,0,0,0-14.183-9.969h-50.376a15.112,15.112,0,0,0-14.184,9.969Z" fill="#000000"/>
      </g>
      <g>
        <path d="M1420.631,1033.02l23.783-66.064a21.075,21.075,0,0,1,19.829-13.936h50.376a21.075,21.075,0,0,1,19.829,13.936l23.783,66.064" style="         fill: #fff;       "/>
        <path d="M1426.277,1035.052l-11.291-4.064,23.783-66.064a27.142,27.142,0,0,1,25.474-17.9h50.376a27.145,27.145,0,0,1,25.475,17.9l23.782,66.064-11.291,4.064L1528.8,968.989a15.114,15.114,0,0,0-14.184-9.969h-50.376a15.11,15.11,0,0,0-14.183,9.969Z" fill="#000000"/>
      </g>
      <g>
        <path d="M1558.231,1033.02l23.783-66.064a21.075,21.075,0,0,1,19.829-13.936h50.376a21.075,21.075,0,0,1,19.829,13.936l23.783,66.064" style="         fill: #fff;       "/>
        <path d="M1563.876,1035.052l-11.291-4.064,23.783-66.064a27.143,27.143,0,0,1,25.475-17.9h50.376a27.145,27.145,0,0,1,25.475,17.9l23.782,66.064-11.291,4.064L1666.4,968.989a15.114,15.114,0,0,0-14.184-9.969h-50.376a15.112,15.112,0,0,0-14.184,9.969Z" fill="#000000"/>
      </g>
      <g>
        <path d="M1833.43,1033.02l-23.783-66.064a21.075,21.075,0,0,0-19.829-13.936h-50.375a21.077,21.077,0,0,0-19.83,13.936l-23.782,66.064" style="         fill: #fff;       "/>
        <path d="M1701.476,1035.052l-11.291-4.064,23.783-66.064a27.142,27.142,0,0,1,25.475-17.9h50.376a27.143,27.143,0,0,1,25.474,17.9l23.782,66.064-11.291,4.064L1804,968.989a15.112,15.112,0,0,0-14.183-9.969h-50.376a15.111,15.111,0,0,0-14.184,9.969Z" fill="#000000"/>
      </g>
      <path d="M1833.43,1039.02H1472.069a6,6,0,0,1,0-12H1833.43a6,6,0,0,1,0,12Z" fill="#000000"/>
      <path d="M386.56,1039.02H182.235a6,6,0,0,1,0-12H386.56a6,6,0,0,1,0,12Z" fill="#000000"/>
    </g>
    <g>
      <path d="M1619.968,151.56c-6.131-13.923-24.078-24.642-46.847-27.894-69.884-9.985-263.975-29.477-565.29-29.477S512.425,113.681,442.54,123.666c-22.768,3.252-40.715,13.971-46.846,27.894-16.613,37.725-26.8,153.507-26.8,271s10.184,233.275,26.8,271c6.131,13.923,24.078,24.642,46.846,27.9,69.885,9.984,263.976,29.477,565.291,29.477s495.406-19.493,565.29-29.477c22.769-3.253,40.716-13.972,46.847-27.9,16.613-37.725,26.8-153.507,26.8-271S1636.581,189.285,1619.968,151.56Z" fill="#000000"/>
      <path d="M1007.831,756.931c-342.071,0-531.616-24.6-566.139-29.537-24.786-3.541-44.515-15.578-51.49-31.416-10.385-23.585-16.668-71.44-20.109-107.433-4.64-48.534-7.195-107.481-7.195-165.985s2.555-117.451,7.195-165.984c3.441-35.993,9.724-83.849,20.109-107.434,6.975-15.838,26.7-27.875,51.49-31.416,34.523-4.932,224.068-29.537,566.139-29.537s531.616,24.605,566.139,29.537c24.785,3.541,44.515,15.578,51.489,31.416h0c10.387,23.585,16.669,71.441,20.111,107.434,4.639,48.532,7.2,107.48,7.2,165.984s-2.556,117.452-7.2,165.985c-3.442,35.993-9.724,83.848-20.111,107.433-6.974,15.838-26.7,27.875-51.489,31.416C1539.447,732.327,1349.9,756.931,1007.831,756.931Zm0-656.742c-341.26,0-530.06,24.5-564.442,29.416-20.4,2.915-36.967,12.483-42.2,24.373C385.707,189.126,374.9,299.571,374.9,422.56S385.707,656,401.185,691.142c5.237,11.891,21.8,21.458,42.2,24.373,34.382,4.912,223.182,29.416,564.442,29.416s530.06-24.5,564.442-29.416c20.4-2.915,36.966-12.482,42.2-24.373,15.478-35.146,26.288-145.592,26.288-268.582s-10.81-233.435-26.288-268.582h0c-5.238-11.89-21.8-21.458-42.2-24.373C1537.891,124.693,1349.093,100.189,1007.831,100.189Z" fill="#000000"/>
    </g>
    <g>
      <g>
        <ellipse cx="1292.269" cy="887.526" rx="17.68" ry="8.84" fill="#000000"/>
        <path d="M1292.269,902.366c-13.721,0-23.68-6.241-23.68-14.84s9.959-14.84,23.68-14.84,23.679,6.241,23.679,14.84S1305.989,902.366,1292.269,902.366ZM1281,887.526c1.417,1.129,5.345,2.84,11.272,2.84s9.854-1.711,11.271-2.84c-1.417-1.129-5.345-2.84-11.271-2.84S1282.414,886.4,1281,887.526Zm23.064.544h0Z" fill="#000000"/>
      </g>
      <g>
        <ellipse cx="1236.296" cy="938.525" rx="17.68" ry="8.84" fill="#000000"/>
        <path d="M1236.3,953.365c-13.721,0-23.68-6.241-23.68-14.84s9.959-14.84,23.68-14.84,23.68,6.241,23.68,14.84S1250.017,953.365,1236.3,953.365Zm-11.272-14.84c1.417,1.129,5.345,2.84,11.272,2.84s9.856-1.711,11.272-2.84c-1.417-1.129-5.346-2.84-11.272-2.84S1226.441,937.4,1225.024,938.525Zm23.064.544h0Z" fill="#000000"/>
      </g>
      <g>
        <ellipse cx="1180.323" cy="887.526" rx="17.68" ry="8.84" fill="#000000"/>
        <path d="M1180.322,902.366c-13.72,0-23.679-6.241-23.679-14.84s9.959-14.84,23.679-14.84,23.68,6.241,23.68,14.84S1194.043,902.366,1180.322,902.366Zm-11.271-14.84c1.417,1.129,5.346,2.84,11.271,2.84s9.855-1.711,11.272-2.84c-1.417-1.129-5.345-2.84-11.272-2.84S1170.468,886.4,1169.051,887.526Zm23.063.544h0Z" fill="#000000"/>
      </g>
      <g>
        <ellipse cx="723.397" cy="887.526" rx="17.68" ry="8.84" fill="#000000"/>
        <path d="M723.4,902.366c-13.721,0-23.68-6.241-23.68-14.84s9.959-14.84,23.68-14.84,23.679,6.241,23.679,14.84S737.117,902.366,723.4,902.366Zm-11.272-14.84c1.417,1.129,5.346,2.84,11.272,2.84s9.854-1.711,11.271-2.84c-1.417-1.129-5.345-2.84-11.271-2.84S713.542,886.4,712.125,887.526Z" fill="#000000"/>
      </g>
      <g>
        <ellipse cx="835.343" cy="887.526" rx="17.68" ry="8.84" fill="#000000"/>
        <path d="M835.343,902.366c-13.721,0-23.68-6.241-23.68-14.84s9.959-14.84,23.68-14.84,23.68,6.241,23.68,14.84S849.064,902.366,835.343,902.366Zm-11.272-14.84c1.417,1.129,5.345,2.84,11.272,2.84s9.854-1.711,11.271-2.84c-1.417-1.129-5.345-2.84-11.271-2.84S825.488,886.4,824.071,887.526Z" fill="#000000"/>
      </g>
    </g>
    <g>
      <g>
        <g>
          <path d="M1149.465,1414.085c-12.7-56.105-18.146-76.011-48.154-96.284-43.909-29.663-144.623-85.142-144.623-85.142s-2.261,30.339-41.036,42.415c-38.226,11.9-87.078,12.588-124.615,6.971-31.371-4.694-65.948-22.661-65.948-49.911-22.078,43.047-26.678,86.617-19.968,113.6,7.951,31.967,50.112,107.614,50.112,107.614-25.443,5.305-49.873,22.015-49.873,22.015-43.7,25.233-115.761,89.876-115.761,89.876l33.257,59.06s162.105-70.175,204.576-96.6c21.006-13.068,41.307-33.434,41.307-61.363v-72.186s46.251,7.076,61.536,8.534c27.458,2.62,109.587,8.808,109.587,8.808s8.442,40.582,25.9,79.224c42.978,95.152,56.868,118.477,56.868,118.477l63.965-14.185S1159.994,1460.61,1149.465,1414.085Z" style="         fill: #ff002a;       "/>
          <path d="M622.859,1630.3a6,6,0,0,1-5.232-3.056l-33.257-59.059a6,6,0,0,1,1.222-7.41c2.957-2.653,72.822-65.17,116.578-90.5,2.32-1.565,21.759-14.409,44.058-20.858-10.632-19.535-40.213-75.233-46.929-102.237-7.928-31.871.1-78.1,20.45-117.784a6,6,0,0,1,11.339,2.738c0,22.895,30.605,39.454,60.836,43.978,32.727,4.894,81.947,5.69,121.943-6.767,34.119-10.625,36.745-36.092,36.84-37.172a6.019,6.019,0,0,1,8.875-4.769c1.01.556,101.457,55.95,145.087,85.426,31.49,21.272,37.6,42.29,50.649,99.931,10.424,46.072,36.893,179.739,37.159,181.083a6,6,0,0,1-4.587,7.023l-63.965,14.185a5.993,5.993,0,0,1-6.454-2.787c-.574-.965-14.553-24.7-57.181-119.077-14.36-31.793-22.612-64.388-25.316-76.047-17.485-1.327-81.745-6.238-105.269-8.482-11.855-1.131-41.425-5.5-54.966-7.53v65.209c0,17.791-7.657,43.763-44.138,66.458-42.362,26.352-198.726,94.134-205.362,97.006A5.983,5.983,0,0,1,622.859,1630.3ZM597.2,1566.513l28.224,50.121c27.522-12,161.379-70.726,198.836-94.028,17.553-10.919,38.476-29.545,38.476-56.268v-72.185a6,6,0,0,1,6.908-5.931c.461.071,46.256,7.066,61.2,8.491,27.086,2.583,108.648,8.737,109.47,8.8a6,6,0,0,1,5.422,4.761c.084.4,8.527,40.421,25.49,77.977,33.306,73.738,49.189,104.375,54.468,114.12l53.87-11.947c-5.205-26.2-26.8-134.578-35.951-175.012h0c-12.812-56.618-17.749-73.781-45.661-92.637-36.521-24.673-113.657-67.91-137.2-81-3.627,11.089-13.99,29.9-43.317,39.03-41.931,13.061-93.245,12.273-127.287,7.177-17.433-2.608-34.64-8.972-47.208-17.458-8.963-6.053-15.5-13.009-19.44-20.6-11.472,27.8-19.952,64.63-12.557,94.359,7.668,30.835,49.112,105.391,49.53,106.141a6,6,0,0,1-4.017,8.8c-23.991,5-47.474,20.933-47.709,21.093-.126.086-.256.168-.387.244C671.2,1502.011,612.277,1553.22,597.2,1566.513Z" style="         fill: #ff002a;       "/>
        </g>
        <path d="M1164.016,1607.347a6,6,0,0,1-5.817-4.548c-.412-1.651-41.339-165.472-49.02-189.189-.915-2.825-1.732-5.741-2.521-8.563-6.089-21.763-12.992-46.43-77.948-74.643-41-17.809-69.974-32.649-86.116-44.108-10.079-7.157-14.549-12.6-14.066-17.121a6,6,0,0,1,11.816-.7c1.283,1.971,12.662,15.969,93.147,50.928,70.193,30.487,78.25,59.28,84.724,82.416.792,2.831,1.54,5.5,2.38,8.1,7.807,24.106,47.558,183.218,49.247,189.98a6,6,0,0,1-5.826,7.454ZM940.461,1270.44v0Zm0-.009v0Zm0-.009v0Zm0-.009v0Zm0-.009v0Zm0-.012Zm0-.015Zm-.26-2.136Z" fill="#000000"/>
        <path d="M993.5,1313.781a6,6,0,0,1-5.962-5.387c-3.538-34.413-23.821-47.768-32.482-53.471q-.8-.528-1.478-.979a6,6,0,1,1,6.7-9.959c.419.282.881.586,1.381.916,9.217,6.068,33.7,22.188,37.821,62.267a6,6,0,0,1-5.356,6.582A6.172,6.172,0,0,1,993.5,1313.781Z" fill="#000000"/>
        <path d="M875.027,1413.26h-.086a99.765,99.765,0,0,1-28.111-5.335c-20.148-6.894-34.717-19.455-42.133-36.324a6,6,0,0,1,10.987-4.828c14.718,33.481,58.979,34.482,59.425,34.489a6,6,0,0,1-.082,12Z" fill="#000000"/>
        <path d="M773.348,1486.176a6,6,0,0,1-5.692-4.1c-3.656-10.972-17.744-22.356-22.863-25.817a6,6,0,0,1,3.941-10.945l33.4,3.27a6,6,0,1,1-1.17,11.943l-14.484-1.418c5.132,5.366,10.178,12.02,12.562,19.172a6,6,0,0,1-5.693,7.9Z" fill="#000000"/>
        <path d="M1045.687,1424.3a6,6,0,0,1-3.293-11.015c.135-.089,14.093-9.376,22.436-21.758a6,6,0,0,1,9.951,6.705,75.877,75.877,0,0,1-6.276,8.022l2.209-.567a6,6,0,1,1,2.981,11.623l-26.516,6.8A5.978,5.978,0,0,1,1045.687,1424.3Z" fill="#000000"/>
      </g>
      <g>
        <path d="M999.147,934.351a140.99,140.99,0,0,1,.463-28.124s11.855,3.411,31.328-7.832a60.275,60.275,0,0,0,25.7-30.153s10-2.74,14.082-9.4c2.425-3.962-8.485-13.419-7.564-28.157.431-6.9,4.454-33.484-14.713-47.467l-11.267,2.678a139.43,139.43,0,0,0-94.006,76.453l-11.288,24.069c-10.04,28.869-32.564,34.61-32.564,34.61s.926,25.7,45.676,27.819c35.89,1.7,51.7-14.791,51.7-14.791Z" style="         fill: #fff;       "/>
        <path d="M993.175,934.937a146.037,146.037,0,0,1,.485-29.49,5.935,5.935,0,0,1,2.648-4.331,5.781,5.781,0,0,1,4.9-.673c.8.172,10.732,1.99,26.726-7.244a54.86,54.86,0,0,0,23.01-26.856,6.039,6.039,0,0,1,4.107-3.888c1.789-.5,7-2.528,9.713-5.621-.386-.9-1.031-2.173-1.543-3.182-2.664-5.246-6.691-13.174-6.055-23.344.037-.587.1-1.309.168-2.148.705-8.316,2.309-27.241-10.354-38.429l-71.047,16.882-38.492,82.075c-11.024,31.294-35.6,37.886-36.642,38.152l-2.965-11.628c.76-.206,19.609-5.55,28.379-30.766a6,6,0,0,1,.234-.577L966.3,798.9a6.006,6.006,0,0,1,4.046-3.29l76.711-18.228a6.006,6.006,0,0,1,4.923.99c20.362,14.854,18.148,40.971,17.315,50.8-.062.737-.117,1.37-.149,1.885-.432,6.9,2.457,12.591,4.777,17.16,2.305,4.537,4.686,9.228,1.915,13.755-3.744,6.118-10.647,9.519-14.645,11.059a66.879,66.879,0,0,1-27.256,30.56c-12.781,7.378-22.756,9.052-28.956,9.133a141.22,141.22,0,0,0,.135,21.044Z" fill="#000000"/>
        <g>
          <path d="M1072.61,734.167s-21.523,24.6-48.122,9.889c-26.448-18.741-59.273-25.233-92.6-5.99-42.634,24.615-40.409,66.93-35.845,89.749,7.832,39.161,29.452,27.474,32.736,66.2,0,0,37.679-6.81,73.705-35.435,0,0-8.8-8.755-10.054-21.676-1.476-15.218,9.286-29.055,25.85-20.475,7.654,3.964,10.655,14.4,10.655,14.4s-1.765-23.3,4.938-33.614a72.387,72.387,0,0,1,8.277-10.191C1056.954,779.7,1073.621,764.667,1072.61,734.167Z" style="         fill: #17adff;       "/>
          <path d="M928.776,900.016a6,6,0,0,1-5.979-5.493c-1.507-17.777-6.825-23.1-13.558-29.836-7-7-14.931-14.939-19.083-35.7-8.527-42.644,5.227-76.779,38.729-96.122,31.956-18.449,67.022-16.283,98.786,6.088,9.119,4.942,18.6,5.042,28.19.293a44.483,44.483,0,0,0,12.233-9.035,6,6,0,0,1,10.513,3.752c1.1,33.237-17,49.822-32.817,57.941a63.628,63.628,0,0,0-6.889,8.578c-4.063,6.252-4.6,21.654-3.986,29.894a6,6,0,0,1-11.75,2.109c-.654-2.208-3.319-8.49-7.647-10.732-3.232-1.674-7.88-3.126-11.692-.547-3.869,2.617-6.049,8.691-5.427,15.115,1.016,10.493,8.26,17.946,8.334,18.02a6.023,6.023,0,0,1-.519,8.932c-36.784,29.228-74.772,36.353-76.371,36.643A6.02,6.02,0,0,1,928.776,900.016Zm44.476-167.655c-11.863,0-24.774,3.053-38.367,10.9-36.777,21.234-38.224,57.06-32.961,83.376,3.438,17.2,9.444,23.2,15.8,29.567,6.618,6.622,13.437,13.447,16.191,30.424a185.341,185.341,0,0,0,60.072-29.1,43.537,43.537,0,0,1-7.535-20.044c-1.051-10.837,3.129-21.127,10.648-26.213,6.786-4.589,15.287-4.648,23.933-.168a20.827,20.827,0,0,1,2.266,1.363c.744-6.6,2.327-13.579,5.536-18.517a77.83,77.83,0,0,1,8.96-11.057,6.008,6.008,0,0,1,1.689-1.244c14.783-7.31,23.584-18.761,26.278-34.131-11.109,6.813-27.213,11.171-44.181,1.789a6,6,0,0,1-.564-.355C1008.872,740.343,992.433,732.361,973.252,732.361Z" style="         fill: #17adff;       "/>
        </g>
        <path d="M1020.154,799.757a6,6,0,0,1-.587-11.97h0c1.787-.183,39.722-4.5,46.161-40.247-11.108,6.8-27.2,11.137-44.144,1.766a6,6,0,1,1,5.809-10.5c9.2,5.093,18.784,5.243,28.468.447a44.483,44.483,0,0,0,12.233-9.035,6,6,0,0,1,10.513,3.752c1.026,30.952-14.894,47.258-28.429,55.488a76.785,76.785,0,0,1-29.436,10.273A5.813,5.813,0,0,1,1020.154,799.757Z" fill="#000000"/>
        <ellipse cx="1057.032" cy="827.947" rx="9.091" ry="12.5" transform="translate(-61.318 84.908) rotate(-4.47)" fill="#000000"/>
      </g>
      <g>
        <path d="M1446.969,1011.482c-7.708-4.237-1.521-4,2.48-11.276s-5.224-.641-13.745-2.722,0,0,.926-5.067-4.468-1.34-13.424-1.616,0,0-2.7-5.986-10.426.446-25.025,4.689-19.394,7.556-19.394,7.556.805-3.832-1.7-12.459-6.528,4.776-20.134,11.61-23.044,24.187-23.044,24.187-41.227-3.486-84.619,1.126c-29.824,3.17-49.265,4.953-49.265,4.953s-92.389-59.525-118.877-72.338c-10.119-4.895-50.714-16.391-81.746-20.085,0,0-15.813,16.491-51.7,14.791-44.751-2.119-45.676-27.819-45.676-27.819-78.321,4.607-88.242,12.12-112.449,28.4-23.294,15.662-74.123,53.561-105.768,79.755,0,0-74.61-5.257-132.744-14.312,0,0-13.874-17.18-27.48-24.013s-17.628-20.237-20.135-11.61-1.7,12.459-1.7,12.459-4.8-3.312-19.394-7.556-22.326-10.674-25.025-4.688,6.256,5.71-2.7,5.985-14.35-3.451-13.424,1.616,9.448,2.986.927,5.067-17.747-4.558-13.745,2.722,10.188,7.039,2.479,11.276-8.42,5.709-1.65,10.555,30.479,16.536,45.413,23.755,55.689,16.2,55.689,16.2,68.512,32.119,96.166,39.587c36.843,12.541,81.938,19.089,146.172-13h0c-4.574,9.928-9.051,20.37-13.785,32.089-14.288,35.373-12.757,60.161-18.362,82.576-1.282,5.128-12.717,31.348-12.717,34.252,0,27.25,40.577,45.217,71.948,49.911,37.537,5.617,86.389,4.934,124.615-6.971,38.775-12.076,41.036-42.415,41.036-42.415,53.295-41.509,49.664-97.94,81.692-127.534l24.826-24.517c37.011,14.088,80.142,27.445,132.843,21.314,109.374-12.723,147.287-39.911,147.287-39.911s38.936-9,53.87-16.219,38.644-18.909,45.414-23.755S1454.677,1015.718,1446.969,1011.482Z" style="         fill: #fff;       "/>
        <g>
          <path d="M1331.207,1020.4s9.437-17.354,23.044-24.187,17.627-20.237,20.134-11.61,1.7,12.459,1.7,12.459,4.794-3.312,19.394-7.556,22.325-10.674,25.025-4.689-6.257,5.711,2.7,5.986,14.35-3.451,13.424,1.616-9.448,2.986-.926,5.067,17.746-4.558,13.745,2.722-10.188,7.039-2.48,11.276,8.42,5.709,1.651,10.555-30.48,16.536-45.414,23.755-53.87,16.219-53.87,16.219" style="         fill: #fff;       "/>
          <path d="M1349.331,1068.012a6,6,0,0,1-1.346-11.846c.382-.089,38.454-8.932,52.61-15.776,31.876-15.41,41.5-21.1,44.4-23.139q-.418-.238-.916-.51c-2.973-1.635-6.19-3.7-6.72-7.578a7.325,7.325,0,0,1,1.3-5.269,21.428,21.428,0,0,1-4.382-.581c-4.323-1.057-8.064-1.971-8.317-6.538-.933.042-1.911.054-2.94.023-4.666-.143-8.038-.247-9.526-4.264a6.162,6.162,0,0,1-.3-3.1c-1.133.422-2.362.912-3.478,1.359a132.521,132.521,0,0,1-12.56,4.474c-13.069,3.8-17.681,6.748-17.726,6.778a6.04,6.04,0,0,1-6.931.125,5.735,5.735,0,0,1-2.312-6.236,18.535,18.535,0,0,0-.293-4.136,49.15,49.15,0,0,1-12.951,9.776c-11.72,5.886-20.382,21.541-20.468,21.7a6,6,0,0,1-10.539-5.739c.423-.777,10.509-19.093,25.621-26.683,5.175-2.6,8.741-6.348,11.606-9.361,3.085-3.246,6.284-6.609,10.853-5.487,2.94.714,5,3.045,6.131,6.926.534,1.838.938,3.5,1.241,4.992,3.114-1.231,7.188-2.656,12.419-4.176a120.994,120.994,0,0,0,11.459-4.1c3.936-1.572,7.045-2.813,9.97-3.164,4.877-.581,8.795,1.552,10.74,5.864a12.516,12.516,0,0,1,.795,2.349c1.375-.124,2.644-.323,3.825-.509,3.357-.526,7.163-1.125,10.04,1.824a7.567,7.567,0,0,1,2.089,5.6c.738-.115,1.454-.25,2.125-.376,3.184-.6,7.552-1.423,10.268,2.326,2.745,3.788.37,8.11-.411,9.53a24.931,24.931,0,0,1-2.915,4.21c3.559,2.059,7.192,4.717,7.453,9.126.307,5.158-4.35,8.492-7.134,10.485-5.416,3.878-20.991,12.046-46.293,24.278-15.363,7.427-53.514,16.29-55.13,16.663A5.975,5.975,0,0,1,1349.331,1068.012Zm20.845-71.967Z" fill="#000000"/>
        </g>
        <g>
          <path d="M548.36,1014.865s-13.874-17.18-27.48-24.013-17.628-20.237-20.135-11.61-1.7,12.459-1.7,12.459-4.8-3.312-19.394-7.556-22.326-10.674-25.025-4.688,6.256,5.71-2.7,5.986-14.35-3.452-13.424,1.615,9.448,2.986.927,5.067-17.747-4.558-13.746,2.722,10.189,7.039,2.48,11.276-8.42,5.709-1.65,10.555,30.479,16.536,45.413,23.755,55.689,16.2,55.689,16.2" style="         fill: #fff;       "/>
          <path d="M527.619,1062.631a6.023,6.023,0,0,1-1.3-.141c-1.691-.373-41.62-9.214-57.009-16.655-25.305-12.234-40.881-20.4-46.3-24.278-2.782-1.992-7.44-5.327-7.133-10.484.262-4.409,3.894-7.068,7.453-9.127a25.035,25.035,0,0,1-2.914-4.209c-.781-1.42-3.157-5.742-.412-9.529,2.716-3.749,7.08-2.929,10.268-2.328.671.126,1.388.261,2.125.376a7.569,7.569,0,0,1,2.089-5.6c2.878-2.949,6.685-2.352,10.04-1.823,1.181.185,2.451.384,3.826.509a12.449,12.449,0,0,1,.793-2.347c1.947-4.315,5.857-6.449,10.741-5.867,2.925.351,6.033,1.592,9.968,3.164a120.786,120.786,0,0,0,11.461,4.1c5.231,1.521,9.305,2.946,12.419,4.176.3-1.493.707-3.154,1.242-4.992,1.127-3.88,3.19-6.211,6.13-6.926,4.571-1.113,7.768,2.243,10.854,5.488,2.865,3.013,6.432,6.763,11.6,9.362,14.6,7.331,28.856,24.861,29.455,25.6a6,6,0,1,1-9.335,7.539c-.217-.267-13.285-16.283-25.5-22.42a49.155,49.155,0,0,1-12.951-9.776,18.434,18.434,0,0,0-.292,4.136,5.723,5.723,0,0,1-2.348,6.213,6.09,6.09,0,0,1-6.965-.149h0s-4.628-2.944-17.658-6.731a132.347,132.347,0,0,1-12.561-4.475c-1.115-.445-2.343-.936-3.476-1.357a6.166,6.166,0,0,1-.3,3.1c-1.486,4.018-4.858,4.122-9.525,4.266-1.026.031-2.007.02-2.941-.023-.253,4.568-3.994,5.481-8.317,6.538a21.419,21.419,0,0,1-4.381.581,7.315,7.315,0,0,1,1.3,5.267c-.531,3.875-3.747,5.944-6.721,7.577q-.5.276-.917.512c2.9,2.039,12.52,7.726,44.4,23.14,14.129,6.83,53.968,15.65,54.369,15.739a6,6,0,0,1-1.285,11.86Zm-22.664-71.946Z" fill="#000000"/>
        </g>
        <g>
          <line x1="1059.723" y1="1076.943" x2="1018.501" y2="1083.217" style="         fill: #fff;       "/>
          <path d="M1018.493,1089.218a6,6,0,0,1-.9-11.932l41.222-6.275a6,6,0,0,1,1.806,11.864l-41.222,6.274A5.993,5.993,0,0,1,1018.493,1089.218Z" fill="#000000"/>
        </g>
        <g>
          <path d="M1020.551,1060.669s29.3,12.411,39.172,16.274c39.094,15.293,85.059,31.641,142.326,24.979,109.374-12.723,147.287-39.911,147.287-39.911,7.687-30.747-18.129-41.613-18.129-41.613s-41.227-3.486-84.619,1.126c-29.825,3.17-49.265,4.953-49.265,4.953s-92.388-59.525-118.877-72.338c-10.12-4.895-50.714-16.391-81.746-20.085,0,0-15.813,16.491-51.7,14.791-44.75-2.119-45.676-27.819-45.676-27.819-78.321,4.607-88.242,12.12-112.449,28.4-23.294,15.662-74.123,53.561-105.768,79.755,0,0-74.61-5.257-132.744-14.312-22.126,12.939-20.747,41.765-20.747,41.765s68.512,32.119,96.166,39.587c36.843,12.541,81.938,19.089,146.172-13" style="         fill: #fff;       "/>
          <path d="M681.437,1112.541c-25.138,0-45.741-5.939-59.41-10.581-27.951-7.608-94.15-38.58-96.96-39.9a6,6,0,0,1-3.447-5.145c-.063-1.326-1.266-32.625,23.712-47.233a5.981,5.981,0,0,1,3.952-.749c51.431,8.012,116.663,13.1,129.858,14.08,32.024-26.353,81.044-62.881,104.383-78.573l1.227-.826c23.7-15.95,35.6-23.957,114.217-28.58a5.842,5.842,0,0,1,4.46,1.518,5.782,5.782,0,0,1,1.889,4.255c.053.734,1.85,20.237,39.963,22.042,32.351,1.537,46.535-12.39,47.122-12.984a6.088,6.088,0,0,1,5.006-1.772c31.939,3.8,73.359,15.663,83.651,20.642,24.811,12,104.538,63.07,117.767,71.572,5.748-.541,23.163-2.2,47.127-4.753,43.461-4.618,84.052-1.282,85.759-1.137a5.967,5.967,0,0,1,1.821.448c10.57,4.448,28.69,20.33,21.623,48.6a6,6,0,0,1-2.325,3.421c-1.6,1.147-40.434,28.239-150.09,41-57.18,6.646-103.088-8.877-145.2-25.351-9.841-3.85-38.127-15.828-39.327-16.337a6,6,0,0,1,4.681-11.049c.293.123,29.332,12.421,39.017,16.21,40.707,15.923,85,30.937,139.448,24.608,55.378-6.443,91.727-16.665,112.468-24.106,16.917-6.069,26.475-11.32,30.2-13.568,4.177-21.281-10.653-30.139-14.353-31.992-6.621-.487-43.917-2.9-82.447,1.194-29.526,3.138-49.157,4.942-49.352,4.96a6,6,0,0,1-3.8-.931c-.92-.594-92.38-59.472-118.238-71.979-9.139-4.421-47.305-15.278-77.2-19.2-5.985,4.827-23.251,15.945-53.919,14.5-36.43-1.724-47.039-18.291-50.125-27.513-70.738,4.444-81.08,11.4-103.136,26.248l-1.232.829c-23.083,15.52-74.105,53.583-105.289,79.4a6.02,6.02,0,0,1-4.248,1.364c-.739-.052-73.634-5.243-131.03-14.027-13.023,8.791-15.515,24.673-15.964,31.7,14.316,6.619,68.368,31.3,91.654,37.587.124.035.247.072.369.114,34.163,11.627,77.7,19.213,141.558-12.688a6,6,0,1,1,5.363,10.735c-30.291,15.132-58.369,22.939-85.837,23.865Q684.083,1112.541,681.437,1112.541Z" fill="#000000"/>
        </g>
        <g>
          <path d="M797.037,1031.281a617.969,617.969,0,0,0-40.869,84.025c-14.288,35.373-12.757,60.161-18.362,82.576-1.282,5.128-12.718,31.348-12.718,34.252,0,27.25,40.578,45.217,71.949,49.911,37.537,5.617,86.389,4.934,124.615-6.971,38.775-12.076,41.036-42.415,41.036-42.415,53.295-41.509,49.664-97.94,81.692-127.534" style="         fill: #fff;       "/>
          <path d="M844.57,1291.416a333.642,333.642,0,0,1-48.421-3.437c-30.977-4.635-77.061-23.333-77.061-55.845,0-2.319,1.15-5.631,7.24-20.852,2.308-5.77,5.181-12.949,5.658-14.855a221.564,221.564,0,0,0,4.036-23.485c2.295-16.827,4.895-35.9,14.583-59.883a624.388,624.388,0,0,1,41.23-84.769,6,6,0,1,1,10.4,5.982,613.274,613.274,0,0,0-40.5,83.281c-9.127,22.595-11.621,40.879-13.821,57.01a229.653,229.653,0,0,1-4.284,24.775c-.641,2.565-2.758,7.9-6.158,16.4-2.322,5.805-5.789,14.471-6.377,16.809.248,12.542,11.689,22.062,21.306,27.863,12.27,7.4,29.289,13.271,45.526,15.7,32.726,4.894,81.946,5.69,121.943-6.767,34.119-10.625,36.745-36.092,36.84-37.172a6.1,6.1,0,0,1,2.294-4.248c29.365-22.871,40.958-51.073,51.186-75.956,7.982-19.419,15.522-37.761,30.121-51.252a6,6,0,1,1,8.144,8.814c-12.652,11.691-19.378,28.055-27.166,47-10.579,25.734-22.541,54.835-53.01,79.355-1.585,8.488-9.241,33.829-44.84,44.915C898.593,1288.54,870.456,1291.416,844.57,1291.416Zm-113.482-59.27v0Z" fill="#000000"/>
        </g>
        <g>
          <path d="M737.806,1197.882s-5.723,39.218,52.313,52.072c103.515,22.927,172.569-17.295,172.569-17.295" style="         fill: #fff;       "/>
          <path d="M853.447,1262.971a298.555,298.555,0,0,1-64.627-7.159c-17.806-3.944-41.276-13.042-51.965-33.986-6.617-12.965-5.056-24.332-4.987-24.81a6,6,0,0,1,11.88,1.7c-.193,1.505-3.719,34,47.668,45.382,52.119,11.546,95.066,6.422,121.912.091,29.149-6.873,46.178-16.618,46.346-16.716a6,6,0,0,1,6.033,10.373c-.735.429-18.383,10.587-49.1,17.9A273.8,273.8,0,0,1,853.447,1262.971Z" fill="#000000"/>
        </g>
      </g>
      <g>
        <g>
          <path d="M517.345,1616.512c-4.37,4.529-5.846,13.751-.07,28.679,25.072,64.8,26.415,72.771,49,75.788l31.187,4.166,30.68-7.269a122.3,122.3,0,0,0,1.2-21.457c-.714-32.108-25.91-35.1-25.91-35.1l-2.387-18.823s15.754-17.611,15.813-18.2c5.535-55.73-33.257-59.059-33.257-59.059l-66.284,51.246" style="         fill: #fff;       "/>
          <path d="M597.464,1731.145a5.861,5.861,0,0,1-.794-.053l-31.187-4.166c-24.432-3.263-28.12-12.845-48.58-66.021q-2.435-6.322-5.224-13.549c-7.675-19.838-3.131-29.872.747-34.352a6.012,6.012,0,0,1,1.22-1.267l66.283-51.246a6.014,6.014,0,0,1,4.182-1.232,42.852,42.852,0,0,1,27.12,15.181c9.841,11.851,13.743,28.824,11.6,50.45-.233,2.354-.25,2.528-15.487,19.57l1.513,11.924c10.856,3.328,25.919,14.375,26.486,39.9a127.708,127.708,0,0,1-1.283,22.618,6,6,0,0,1-4.528,4.811l-30.68,7.268A5.975,5.975,0,0,1,597.464,1731.145Zm-75.9-110.362c-2.5,2.742-3.439,9.981,1.3,22.243q2.8,7.248,5.232,13.57c21.092,54.812,22.817,56.279,38.969,58.436l30.088,4.019L622.723,1713a133.1,133.1,0,0,0,.619-16.442c-.248-11.14-3.748-19.418-10.4-24.6a23.91,23.91,0,0,0-10.265-4.678,5.942,5.942,0,0,1-5.2-5.2l-2.388-18.823a6,6,0,0,1,1.48-4.754c5.785-6.467,12.159-13.7,14.468-16.466,3.395-40.392-18.687-48.789-25.849-50.442Z" fill="#000000"/>
        </g>
        <path d="M573.745,1646.5a6,6,0,0,1-5.368-8.67c4.6-9.267,11.208-26.929,9.376-34.864-1.319-5.715-4.725-10.271-8.887-11.891-4.5-1.75-8.892.247-11.784,2.232a6,6,0,1,1-6.789-9.894c7.463-5.121,15.6-6.37,22.927-3.521,7.927,3.087,13.992,10.7,16.225,20.375,3.392,14.689-8.908,40.059-10.322,42.9A6,6,0,0,1,573.745,1646.5Z" fill="#000000"/>
        <path d="M596.4,1731.05c-1.591-.285-15.89-3.545-27.675-29.629-11.83-26.187-23.06-54.4-24.781-58.867-9.024-23.441-15.953-23.441-18.229-23.441a5.312,5.312,0,0,0-4.388,1.944,6,6,0,0,1-9.383-7.48,17.217,17.217,0,0,1,13.771-6.464c8.121,0,18.806,3.538,29.429,31.131,1.7,4.416,12.8,32.306,24.516,58.235,9.092,20.125,18.948,22.774,19.046,22.8a1.591,1.591,0,0,0-.184-.037Z" fill="#000000"/>
        <path d="M601.582,1709.087a6,6,0,0,1-3.831-1.38c-9.463-7.844-27.711-59.229-31.273-69.45-12.43-35.668-25.795-32.663-25.923-32.628a1.605,1.605,0,0,0,.239-.078l-4.076-11.287c1.05-.378,6.665-2.086,14.247,1.525,10.677,5.085,19.709,18.045,26.845,38.519,14.32,41.09,22.638,56.563,26.06,61.9,4.339-1.169,12.245-3.157,24.244-5.659a6,6,0,0,1,2.452,11.748c-18.573,3.873-27.124,6.5-27.208,6.524A5.979,5.979,0,0,1,601.582,1709.087Z" fill="#000000"/>
        <path d="M611.351,1706.48c-.174,0-.349-.007-.526-.022a6,6,0,0,1-5.459-6.5l.281-3.23c1.335-19.823-7-31.781-7.083-31.9a6,6,0,0,1,9.711-7.051c.45.616,11.006,15.371,9.34,39.82l-.008.111-.286,3.286A6,6,0,0,1,611.351,1706.48Zm.278-9.286h0Z" fill="#000000"/>
      </g>
      <g>
        <g>
          <path d="M1126.466,1609.674s2.941,50.714,7.8,79.508v22.1h162.544s1.083-15.067.311-23.2c-1.026-10.817-6.3-18.823-33.667-24.784-58.457-12.733-67.722-68.978-67.722-68.978Z" style="         fill: #fff;       "/>
          <path d="M1296.809,1717.28H1134.265a6,6,0,0,1-6-6v-21.6c-4.807-28.851-7.669-77.586-7.789-79.658a6,6,0,0,1,4.691-6.2l69.265-15.359a6,6,0,0,1,7.219,4.881,86.773,86.773,0,0,0,11.369,27.932c11.883,19.108,29.281,31.275,51.711,36.16,26.091,5.684,36.848,14.117,38.363,30.08.809,8.535-.255,23.564-.3,24.2A6,6,0,0,1,1296.809,1717.28Zm-156.544-12h150.877a138.833,138.833,0,0,0,0-16.636c-.569-6-1.277-13.456-28.971-19.488-32.261-7.027-50.227-26.71-59.617-41.985a102.973,102.973,0,0,1-11.3-25.719l-58.484,12.969c.883,13.54,3.551,50.924,7.4,73.762a6.065,6.065,0,0,1,.084,1Z" fill="#000000"/>
        </g>
        <path d="M1297.211,1695.181H1134.265a6,6,0,1,1,0-12h162.946a6,6,0,0,1,0,12Z" fill="#000000"/>
        <path d="M1181.387,1695.182a6,6,0,0,1-5.873-4.8c-2.523-12.384-10.218-22.048-22.875-28.726a66.592,66.592,0,0,0-19.372-6.605,6,6,0,0,1,1.63-11.888,77.536,77.536,0,0,1,22.97,7.684c15.983,8.315,26.151,21.158,29.4,37.14a6.006,6.006,0,0,1-5.885,7.2Z" fill="#000000"/>
        <path d="M1263.171,1695.181a6,6,0,0,1-6-6v-25.887a6,6,0,0,1,12,0v25.887A6,6,0,0,1,1263.171,1695.181Z" fill="#000000"/>
        <path d="M1190.067,1639.256a6,6,0,0,1-2.277-11.554l18.731-7.671a6,6,0,1,1,4.549,11.105l-18.731,7.671A5.984,5.984,0,0,1,1190.067,1639.256Z" fill="#000000"/>
        <path d="M1207.2,1658.676a6,6,0,0,1-4.3-10.188l12.66-12.987a6,6,0,1,1,8.593,8.377l-12.659,12.987A5.984,5.984,0,0,1,1207.2,1658.676Z" fill="#000000"/>
        <path d="M1227.362,1673.635a6,6,0,0,1-5.316-8.773l8.143-15.627a6,6,0,1,1,10.642,5.545l-8.142,15.627A6,6,0,0,1,1227.362,1673.635Z" fill="#000000"/>
      </g>
    </g>
  </g>
</g></g></g><!--ITEM 2--><g><defs><clipPath id="clip-path-id-viewbox-item-2"><rect x="0.0" y="0.0" width="165.0" height="270.0"/></clipPath></defs><g transform="translate(1056.0 790.0) rotate(0.0 100.0 164.0) scale(1.2121212121212122 1.2148148148148148)"><g clip-path="url(#clip-path-id-viewbox-item-2)" transform="translate(-0.0 -0.0)"><g>
    <polygon points="15 0 30 15 30 120 15 135 0 120 0 15 15 0" style="         fill: #ffffff;       "/>
    <polygon points="150 0 165 15 165 120 150 135 135 120 135 15 150 0" style="         fill: #ffffff;       "/>
    <polygon points="150 135 135 150 30 150 15 135 30 120 135 120 150 135" style="         fill: #ffffff;       "/>
    <polygon points="150 135 165 150 165 255 150 270 135 255 135 150 150 135" style="         fill: #ffffff;       "/>
  </g>
</g></g></g><!--ITEM 3--><g><defs><clipPath id="clip-path-id-viewbox-item-3"><rect x="0.0" y="0.0" width="165.0" height="270.0"/></clipPath></defs><g transform="translate(1740.0 790.0) rotate(0.0 101.0 165.0) scale(1.2242424242424241 1.2222222222222223)"><g clip-path="url(#clip-path-id-viewbox-item-3)" transform="translate(-0.0 -0.0)"><g>
    <polygon points="15 0 30 15 30 120 15 135 0 120 0 15 15 0" style="         fill: #ffffff;       "/>
    <polygon points="150 0 165 15 165 120 150 135 135 120 135 15 150 0" style="         fill: #ffffff;       "/>
    <polygon points="150 135 135 150 30 150 15 135 30 120 135 120 150 135" style="         fill: #ffffff;       "/>
    <polygon points="150 135 165 150 165 255 150 270 135 255 135 150 150 135" style="         fill: #ffffff;       "/>
  </g>
</g></g></g><!--ITEM 4--><g><defs><clipPath id="clip-path-id-viewbox-item-4"><rect x="0.0" y="0.0" width="165.144" height="300.0"/></clipPath></defs><g transform="translate(1400.0 772.0) rotate(0.0 100.0 181.0) scale(1.2110642832921572 1.2066666666666668)"><g clip-path="url(#clip-path-id-viewbox-item-4)" transform="translate(-0.0 -0.0)"><g>
    <polygon points="150.144 15 135.144 30 135.144 135 150.144 150 165.144 135 165.144 30 150.144 15" style="         fill: #ffffff;       "/>
    <polygon points="15.144 15 30.144 30 135.144 30 150.144 15 135.144 0 30.144 0 15.144 15" style="         fill: #ffffff;       "/>
    <polygon points="15.144 285 30.144 300 135.144 300 150.144 285 135.144 270 30.144 270 15.144 285" style="         fill: #ffffff;       "/>
    <polygon points="150.144 150 135.144 165 135.144 270 150.144 285 165.144 270 165.144 165 150.144 150" style="         fill: #ffffff;       "/>
    <polygon points="15 15 0 30 0 135 15 150 30 135 30 30 15 15" style="         fill: #ffffff;       "/>
    <polygon points="15 150 0 165 0 270 15 285 30 270 30 165 15 150" style="         fill: #ffffff;       "/>
  </g>
</g></g></g><!--ITEM 5--><g><defs><clipPath id="clip-path-id-viewbox-item-5"><rect x="0.0" y="0.0" width="389.959" height="681.124"/></clipPath></defs><g transform="translate(1060.0 1722.0) rotate(0.0 237.0 414.0) scale(1.2155124000215407 1.215637681244531)"><g clip-path="url(#clip-path-id-viewbox-item-5)" transform="translate(-0.0 -0.0)"><g>
    <path d="M361.1,581.128c-5.908-3.82-11.936-7.327-18-10.737s-12.18-6.69-18.332-9.869q-18.462-9.528-37.295-18.088c-12.535-5.757-25.207-11.157-37.948-16.379-9.956-4.063-30.035-11.753-30.035-11.753l-18.5-5.852L182.5,514.3s-20.079,7.69-30.036,11.753c-12.74,5.222-25.412,10.622-37.947,16.379q-18.844,8.529-37.295,18.088-9.23,4.769-18.332,9.869c-6.064,3.41-12.092,6.917-18,10.737A12.361,12.361,0,0,0,49.52,603.72c6.951-1.093,13.781-2.5,20.574-4s13.537-3.136,20.242-4.871q20.112-5.211,39.853-11.391c13.181-4.069,26.225-8.5,39.2-13.1q4.955-1.767,9.892-3.582l7.077,61.158a16.03,16.03,0,0,0,14.633,14.122,16.03,16.03,0,0,0,14.634-14.122l7.077-61.158q4.938,1.813,9.892,3.582c12.976,4.6,26.02,9.032,39.2,13.1q19.731,6.21,39.854,11.391,10.058,2.6,20.242,4.871c6.793,1.5,13.623,2.91,20.573,4a12.361,12.361,0,0,0,8.633-22.592Z" fill="#000000"/>
    <circle cx="45.204" cy="624.789" r="32.365" fill="#000000"/>
    <circle cx="357.594" cy="624.789" r="32.365" fill="#000000"/>
    <circle cx="201.399" cy="648.759" r="32.365" fill="#000000"/>
    <g>
      <path d="M344.609,356.6H37.329A31.329,31.329,0,0,1,6,325.275H6a31.329,31.329,0,0,1,31.329-31.329h307.28a31.33,31.33,0,0,1,31.282,33.03h0A31.328,31.328,0,0,1,344.609,356.6Z" style="         fill: #fff;       "/>
      <path d="M344.608,362.6H37.329a37.329,37.329,0,1,1,0-74.657H344.608a37.329,37.329,0,1,1,0,74.657ZM37.329,299.946a25.329,25.329,0,1,0,0,50.657H344.608a25.329,25.329,0,1,0,0-50.657Z" fill="#000000"/>
    </g>
    <g>
      <path d="M227.112,266.3H52.563a28.733,28.733,0,0,1-28.619-26.189L8.764,69.287A44.933,44.933,0,0,1,30.889,30.442C50.581,18.94,84.936,6,139.838,6c54.421,0,88.654,12.715,108.429,24.14a45.228,45.228,0,0,1,22.644,39.152l-15.18,170.823A28.733,28.733,0,0,1,227.112,266.3Z" style="         fill: #fff;       "/>
      <path d="M227.112,272.3H52.563a34.55,34.55,0,0,1-34.595-31.658L2.788,69.818c-.016-.177-.024-.353-.024-.531a51.076,51.076,0,0,1,25.1-44.025C47.593,13.737,83.035,0,139.838,0c56.414,0,91.734,13.564,111.43,24.944a51.389,51.389,0,0,1,25.643,44.348c0,.178-.008.354-.024.531L261.708,240.646A34.551,34.551,0,0,1,227.112,272.3ZM14.765,69.03,29.921,239.584A22.613,22.613,0,0,0,52.563,260.3H227.112a22.615,22.615,0,0,0,22.643-20.72L264.91,69.035a39.352,39.352,0,0,0-19.646-33.7C226.84,24.689,193.593,12,139.838,12,85.719,12,52.366,24.846,33.915,35.623A39.032,39.032,0,0,0,14.765,69.03Z" fill="#000000"/>
    </g>
    <g>
      <rect x="181.071" y="356.604" width="42.386" height="166.238" style="         fill: #fff;       "/>
      <path d="M223.457,528.842H181.071a6,6,0,0,1-6-6V356.6a6,6,0,0,1,6-6h42.386a6,6,0,0,1,6,6V522.842A6,6,0,0,1,223.457,528.842Zm-36.386-12h30.386V362.6H187.071Z" fill="#000000"/>
    </g>
    <g>
      <path d="M120.257,146.057h0a28.564,28.564,0,0,1,28.564,28.564V293.946a0,0,0,0,1,0,0H91.693a0,0,0,0,1,0,0V174.621A28.564,28.564,0,0,1,120.257,146.057Z" style="         fill: #fff;       "/>
      <path d="M148.821,299.946H91.693a6,6,0,0,1-6-6V174.622a34.564,34.564,0,1,1,69.128,0V293.946A6,6,0,0,1,148.821,299.946Zm-51.128-12h45.128V174.622a22.564,22.564,0,1,0-45.128,0Z" fill="#000000"/>
    </g>
  </g>
</g></g></g></svg>